# xmcd CD database file
# Copyright (C) 1997 Ti Kan
# 
# Track frame offsets:
#     150
#     17203
#     40343
#     71777
#     93219
#     111276
#     139768
#     158019
#     184263
#     204377
#     221914
#     267700
# 
# Disc length: 3576 seconds
# 
# Revision: 1
# Processed by: cddbd v1.4b41PL1 Copyright (c) Steve Scherf et al.
# Submitted via: DiscPlay 4.0.4
# 
DISCID=b70df60c
DTITLE=Sampson Annie - Under The Moon
DYEAR=1900
DGENRE=
TTITLE0=Under the Moon
TTITLE1=Black Nights
TTITLE2=Its All Over Now Baby Blue
TTITLE3=Im going for the Big Fish Baby
TTITLE4=Learn for Yourself
TTITLE5=Thats Why Im Crying
TTITLE6=Shake it Up
TTITLE7=Stranger in My Arms
TTITLE8=Womans Intuition
TTITLE9=I Don't Wanna Lose Your Love
TTITLE10=Papa's Blues
TTITLE11=
EXTD=
EXTT0=
EXTT1=
EXTT2=
EXTT3=
EXTT4=
EXTT5=
EXTT6=
EXTT7=
EXTT8=
EXTT9=
EXTT10=
EXTT11=
PLAYORDER=
